<svg width="46" height="44" viewBox="0 0 46 44" fill="none" xmlns="http://www.w3.org/2000/svg">
<path d="M45.4789 16.5734C45.3012 16.0108 44.9585 15.5146 44.4955 15.1493C44.0325 14.7839 43.4704 14.5663 42.8823 14.5247L30.3864 13.5138L25.5706 1.8483C25.3459 1.30151 24.964 0.833878 24.4732 0.504789C23.9824 0.1757 23.405 0 22.8143 0C22.2235 0 21.6461 0.1757 21.1554 0.504789C20.6646 0.833878 20.2826 1.30151 20.0579 1.8483L15.2421 13.5097L2.74631 14.5247C2.15765 14.5666 1.59522 14.7849 1.13213 15.151C0.66904 15.5171 0.326716 16.0142 0.149664 16.5776C-0.0348958 17.1395 -0.0490839 17.7436 0.108889 18.3135C0.266861 18.8835 0.589921 19.3939 1.03733 19.7804L10.5777 28.0023L7.67412 40.301C7.53787 40.8765 7.57531 41.4796 7.78169 42.0338C7.98807 42.5881 8.35411 43.0686 8.83348 43.4145C9.30693 43.7656 9.8753 43.9653 10.4641 43.9875C11.0529 44.0098 11.6347 43.8535 12.1332 43.5391L22.8143 36.9674L33.512 43.5495C34.0105 43.8638 34.5923 44.0201 35.1811 43.9979C35.7699 43.9757 36.3382 43.776 36.8117 43.4249C37.291 43.079 37.6571 42.5985 37.8635 42.0442C38.0699 41.49 38.1073 40.8869 37.971 40.3113L35.0674 28.0127L44.5912 19.7804C45.0394 19.3936 45.363 18.8825 45.521 18.3117C45.679 17.7408 45.6644 17.1359 45.4789 16.5734ZM42.9611 17.8957L32.8628 26.6137C32.6905 26.7625 32.5623 26.9557 32.492 27.1724C32.4218 27.389 32.4123 27.6208 32.4646 27.8425L35.5507 40.8759C35.5777 40.9743 35.5732 41.0787 35.5379 41.1744C35.5025 41.2701 35.4381 41.3523 35.3537 41.4094C35.2771 41.4686 35.184 41.5025 35.0874 41.5062C34.9907 41.5099 34.8953 41.4833 34.8144 41.4302L23.4655 34.4516C23.2696 34.3312 23.0442 34.2674 22.8143 34.2674C22.5844 34.2674 22.359 34.3312 22.163 34.4516L10.8141 41.4281C10.7333 41.4812 10.6379 41.5078 10.5412 41.5041C10.4445 41.5004 10.3514 41.4665 10.2749 41.4073C10.1886 41.3516 10.1221 41.27 10.0848 41.1742C10.0476 41.0784 10.0415 40.9733 10.0675 40.8739L13.1536 27.8404C13.2059 27.6187 13.1964 27.387 13.1261 27.1703C13.0559 26.9537 12.9277 26.7604 12.7554 26.6116L2.65712 17.8936C2.5779 17.829 2.52074 17.7414 2.49361 17.6428C2.46647 17.5442 2.47071 17.4396 2.50572 17.3435C2.53278 17.2488 2.58868 17.1649 2.66563 17.1035C2.74259 17.0422 2.83677 17.0063 2.93504 17.001L16.192 15.93C16.4205 15.9114 16.6393 15.8301 16.8245 15.6949C17.0097 15.5597 17.154 15.376 17.2415 15.164L22.3497 2.79275C22.3853 2.70117 22.4477 2.6225 22.5288 2.56702C22.6098 2.51155 22.7057 2.48187 22.8039 2.48187C22.9021 2.48187 22.998 2.51155 23.079 2.56702C23.1601 2.6225 23.2225 2.70117 23.2581 2.79275L28.3664 15.164C28.4539 15.376 28.5981 15.5597 28.7833 15.6949C28.9685 15.8301 29.1874 15.9114 29.4158 15.93L42.6728 17.001C42.7711 17.0063 42.8652 17.0422 42.9422 17.1035C43.0191 17.1649 43.0751 17.2488 43.1021 17.3435C43.1388 17.4388 43.1449 17.5432 43.1196 17.6421C43.0943 17.7411 43.0389 17.8297 42.9611 17.8957Z" fill="#C0BC00"/>
</svg>
