<svg width="28" height="26" viewBox="0 0 28 26" fill="none" xmlns="http://www.w3.org/2000/svg">
<path d="M27.7142 21.7718C27.7142 22.0403 27.6058 22.2977 27.4129 22.4876C27.22 22.6774 26.9584 22.7841 26.6856 22.7841H19.6914C19.4623 23.6247 18.9578 24.3676 18.2561 24.8973C17.5544 25.4271 16.6946 25.7143 15.8102 25.7143C14.9258 25.7143 14.0661 25.4271 13.3644 24.8973C12.6627 24.3676 12.1582 23.6247 11.9291 22.7841H1.31428C1.04149 22.7841 0.779868 22.6774 0.586974 22.4876C0.39408 22.2977 0.285713 22.0403 0.285713 21.7718C0.285713 21.5033 0.39408 21.2459 0.586974 21.056C0.779868 20.8662 1.04149 20.7595 1.31428 20.7595H11.9291C12.1582 19.9188 12.6627 19.176 13.3644 18.6462C14.0661 18.1165 14.9258 17.8293 15.8102 17.8293C16.6946 17.8293 17.5544 18.1165 18.2561 18.6462C18.9578 19.176 19.4623 19.9188 19.6914 20.7595H26.6856C26.9584 20.7595 27.22 20.8662 27.4129 21.056C27.6058 21.2459 27.7142 21.5033 27.7142 21.7718ZM27.7142 3.94249C27.7142 4.21096 27.6058 4.46844 27.4129 4.65827C27.22 4.84811 26.9584 4.95476 26.6856 4.95476H23.3256C23.0965 5.79544 22.592 6.53826 21.8903 7.06805C21.1886 7.59783 20.3289 7.88499 19.4445 7.88499C18.5601 7.88499 17.7004 7.59783 16.9987 7.06805C16.297 6.53826 15.7925 5.79544 15.5634 4.95476H1.31428C1.17921 4.95476 1.04546 4.92857 0.920665 4.8777C0.795874 4.82683 0.682485 4.75227 0.586974 4.65827C0.491462 4.56427 0.415699 4.45268 0.364008 4.32987C0.312318 4.20706 0.285713 4.07543 0.285713 3.94249C0.285713 3.80956 0.312318 3.67793 0.364008 3.55512C0.415699 3.4323 0.491462 3.32071 0.586974 3.22672C0.682485 3.13272 0.795874 3.05816 0.920665 3.00729C1.04546 2.95641 1.17921 2.93023 1.31428 2.93023H15.5634C15.7925 2.08955 16.297 1.34673 16.9987 0.81694C17.7004 0.287154 18.5601 0 19.4445 0C20.3289 0 21.1886 0.287154 21.8903 0.81694C22.592 1.34673 23.0965 2.08955 23.3256 2.93023H26.6856C26.8212 2.92842 26.9558 2.95336 27.0814 3.00359C27.207 3.05382 27.3212 3.12831 27.417 3.22267C27.5129 3.31703 27.5886 3.42935 27.6397 3.55298C27.6907 3.67661 27.716 3.80906 27.7142 3.94249ZM27.7142 12.8504C27.716 12.9838 27.6907 13.1163 27.6397 13.2399C27.5886 13.3635 27.5129 13.4759 27.417 13.5702C27.3212 13.6646 27.207 13.7391 27.0814 13.7893C26.9558 13.8395 26.8212 13.8645 26.6856 13.8627H10.64C10.4109 14.7033 9.90637 15.4462 9.20466 15.976C8.50295 16.5057 7.64325 16.7929 6.75883 16.7929C5.87442 16.7929 5.01472 16.5057 4.31301 15.976C3.6113 15.4462 3.10679 14.7033 2.8777 13.8627H1.31428C1.04149 13.8627 0.779868 13.756 0.586974 13.5662C0.39408 13.3763 0.285713 13.1189 0.285713 12.8504C0.285713 12.5819 0.39408 12.3245 0.586974 12.1346C0.779868 11.9448 1.04149 11.8381 1.31428 11.8381H2.8777C3.10679 10.9974 3.6113 10.2546 4.31301 9.72484C5.01472 9.19506 5.87442 8.9079 6.75883 8.9079C7.64325 8.9079 8.50295 9.19506 9.20466 9.72484C9.90637 10.2546 10.4109 10.9974 10.64 11.8381H26.6856C26.9584 11.8381 27.22 11.9448 27.4129 12.1346C27.6058 12.3245 27.7142 12.5819 27.7142 12.8504Z" fill="#2E3A45"/>
</svg>
