<svg width="26" height="26" viewBox="0 0 26 26" fill="none" xmlns="http://www.w3.org/2000/svg">
<path d="M21.125 10.5625C21.125 12.8934 20.3684 15.0465 19.0938 16.7934L25.5227 23.2273C26.1574 23.8621 26.1574 24.893 25.5227 25.5277C24.8879 26.1625 23.857 26.1625 23.2223 25.5277L16.7934 19.0938C15.0465 20.3734 12.8934 21.125 10.5625 21.125C4.72773 21.125 0 16.3973 0 10.5625C0 4.72773 4.72773 0 10.5625 0C16.3973 0 21.125 4.72773 21.125 10.5625ZM10.5625 17.875C11.5228 17.875 12.4737 17.6859 13.3609 17.3184C14.2481 16.9509 15.0542 16.4122 15.7332 15.7332C16.4122 15.0542 16.9509 14.2481 17.3184 13.3609C17.6859 12.4737 17.875 11.5228 17.875 10.5625C17.875 9.60221 17.6859 8.65132 17.3184 7.76413C16.9509 6.87693 16.4122 6.07081 15.7332 5.39178C15.0542 4.71275 14.2481 4.17412 13.3609 3.80663C12.4737 3.43914 11.5228 3.25 10.5625 3.25C9.60221 3.25 8.65132 3.43914 7.76413 3.80663C6.87693 4.17412 6.07081 4.71275 5.39178 5.39178C4.71275 6.07081 4.17412 6.87693 3.80663 7.76413C3.43914 8.65132 3.25 9.60221 3.25 10.5625C3.25 11.5228 3.43914 12.4737 3.80663 13.3609C4.17412 14.2481 4.71275 15.0542 5.39178 15.7332C6.07081 16.4122 6.87693 16.9509 7.76413 17.3184C8.65132 17.6859 9.60221 17.875 10.5625 17.875Z" fill="#EAE4CE"/>
</svg>
